<svg width="190" height="104" xmlns="http://www.w3.org/2000/svg"><defs><radialGradient spreadMethod="pad" gradientUnits="userSpaceOnUse" gradientTransform="scale(527.694 -527.694) rotate(43 2 -1)" fy="0" fx="0" r="1" cy="0" cx="0" id="b"><stop stop-color="#93d677" offset="0"/><stop stop-color="#7ecb2e" offset=".7"/><stop stop-color="#398536" offset="1"/></radialGradient><radialGradient spreadMethod="pad" gradientUnits="userSpaceOnUse" gradientTransform="scale(663.263 -663.263) rotate(33 2 1)" fy="0" fx="0" r="1" cy="0" cx="0" id="d"><stop stop-color="#cce881" offset="0"/><stop stop-color="#7ecb2e" offset=".7"/><stop stop-color="#398536" offset="1"/></radialGradient><radialGradient spreadMethod="pad" gradientUnits="userSpaceOnUse" gradientTransform="scale(742.49 -742.49) rotate(44 1 0)" fy="0" fx="0" r="1" cy="0" cx="0" id="f"><stop stop-color="#4fabe4" offset="0"/><stop stop-color="#7fb8e7" offset=".7"/><stop stop-color="#2d69ab" offset="1"/></radialGradient></defs><defs><clipPath clipPathUnits="userSpaceOnUse" id="a"><path d="M204 315c-62 0-128 8-199 28l-3 2 301 252c10 8 19 11 28 11 10 0 19-4 28-11l127-105-208-173c-24-3-49-4-74-4m123 254c-6 0-14-2-21-8l-78-65 171 31-48 34c-7 5-15 8-24 8m91-222h1-1m143 51l26 10-26-10"/></clipPath><clipPath clipPathUnits="userSpaceOnUse" id="c"><path d="M278 319l208 173 325 271c15 11 30 18 45 18s30-6 45-18l508-422-27-6c-18-3-44-6-78-6-74 0-188 14-342 74-77 30-138 44-196 44a493 493 0 01-208-50c-42-17-88-35-139-50h-1c-44-13-90-23-140-28m580 419c-8 0-17-3-27-10L673 599l281 79-69 50c-9 6-18 10-27 10m551-397"/></clipPath><clipPath clipPathUnits="userSpaceOnUse" id="e"><path d="M1409 295c-1 1-148-55-447 62a462 462 0 01-404-6C420 295 236 229 0 299l3-1 300-144c23-11 38-13 57 0 0 0 81 65 88 68L814 14c33-20 57-17 89 0l506 281s-1 1 0 0z"/></clipPath></defs><path fill="none" d="M-1-1h192v106H-1z"/><g><g transform="matrix(.13333 0 0 -.13333 0 104)" clip-path="url(#a)"><path d="M204 315c-62 0-128 8-199 28l-3 2 301 252c10 8 19 11 28 11 10 0 19-4 28-11l127-105-208-173c-24-3-49-4-74-4m123 254c-6 0-14-2-21-8l-78-65 171 31-48 34c-7 5-15 8-24 8m91-222h1-1m143 51l26 10-26-10" fill="url(#b)"/></g><g transform="matrix(.13333 0 0 -.13333 0 104)" clip-path="url(#c)"><path d="M278 319l208 173 325 271c15 11 30 18 45 18s30-6 45-18l508-422-27-6c-18-3-44-6-78-6-74 0-188 14-342 74-77 30-138 44-196 44a493 493 0 01-208-50c-42-17-88-35-139-50h-1c-44-13-90-23-140-28m580 419c-8 0-17-3-27-10L673 599l281 79-69 50c-9 6-18 10-27 10m551-397" fill="url(#d)"/></g><g transform="matrix(.13333 0 0 -.13333 0 104)" clip-path="url(#e)"><path d="M1409 295c-1 1-148-55-447 62a462 462 0 01-404-6C420 295 236 229 0 299l3-1 300-144c23-11 38-13 57 0 0 0 81 65 88 68L814 14c33-20 57-17 89 0l506 281s-1 1 0 0" fill="url(#f)"/></g></g></svg>