<svg xmlns="http://www.w3.org/2000/svg" viewBox="0 0 639 104">
	<defs />
	<defs>
		<clipPath id="a" clipPathUnits="userSpaceOnUse">
			<path
				d="M204 315c-62 0-128 8-199 28l-3 2 301 252c10 8 19 11 28 11 10 0 19-4 28-11l127-105-208-173c-24-3-49-4-74-4m123 254c-6 0-14-2-21-8l-78-65 171 31-48 34c-7 5-15 8-24 8m91-222h1-1m143 51l26 10-26-10" />
		</clipPath>
		<clipPath id="c" clipPathUnits="userSpaceOnUse">
			<path
				d="M278 319l208 173 325 271c15 11 30 18 45 18s30-6 45-18l508-422-27-6c-18-3-44-6-78-6-74 0-188 14-342 74-77 30-138 44-196 44a493 493 0 01-208-50c-42-17-88-35-139-50h-1c-44-13-90-23-140-28m580 419c-8 0-17-3-27-10L673 599l281 79-69 50c-9 6-18 10-27 10m551-397" />
		</clipPath>
		<clipPath id="e" clipPathUnits="userSpaceOnUse">
			<path d="M1317 364" />
		</clipPath>
		<clipPath id="f" clipPathUnits="userSpaceOnUse">
			<path
				d="M1409 295c-1 1-148-55-447 62a462 462 0 01-404-6C420 295 236 229 0 299l3-1 300-144c23-11 38-13 57 0 0 0 81 65 88 68L814 14c33-20 57-17 89 0l506 281s-1 1 0 0z" />
		</clipPath>
		<clipPath id="h" clipPathUnits="userSpaceOnUse">
			<path d="M228 496l78 65c7 6 15 8 21 8 9 0 17-3 24-8l48-34-171-31" />
		</clipPath>
		<clipPath id="i" clipPathUnits="userSpaceOnUse">
			<path d="M673 599l158 129c10 7 19 10 27 10 9 0 18-4 27-10l69-50-281-79" />
		</clipPath>
		<radialGradient id="b" cx="0" cy="0" r="1" fx="0" fy="0" gradientTransform="scale(527.694 -527.694) rotate(43 2 -1)"
			gradientUnits="userSpaceOnUse" spreadMethod="pad">
			<stop offset="0" stop-color="#93d677" />
			<stop offset=".7" stop-color="#7ecb2e" />
			<stop offset="1" stop-color="#398536" />
		</radialGradient>
		<radialGradient id="d" cx="0" cy="0" r="1" fx="0" fy="0" gradientTransform="scale(663.263 -663.263) rotate(33 2 1)"
			gradientUnits="userSpaceOnUse" spreadMethod="pad">
			<stop offset="0" stop-color="#cce881" />
			<stop offset=".7" stop-color="#7ecb2e" />
			<stop offset="1" stop-color="#398536" />
		</radialGradient>
		<radialGradient id="g" cx="0" cy="0" r="1" fx="0" fy="0" gradientTransform="scale(742.49 -742.49) rotate(44 1 0)"
			gradientUnits="userSpaceOnUse" spreadMethod="pad">
			<stop offset="0" stop-color="#4fabe4" />
			<stop offset=".7" stop-color="#7fb8e7" />
			<stop offset="1" stop-color="#2d69ab" />
		</radialGradient>
	</defs>
	<g clip-path="url(#a)" transform="matrix(.13333 0 0 -.13333 0 104)">
		<path fill="url(#b)"
			d="M204 315c-62 0-128 8-199 28l-3 2 301 252c10 8 19 11 28 11 10 0 19-4 28-11l127-105-208-173c-24-3-49-4-74-4m123 254c-6 0-14-2-21-8l-78-65 171 31-48 34c-7 5-15 8-24 8m91-222h1-1m143 51l26 10-26-10" />
	</g>
	<g clip-path="url(#c)" transform="matrix(.13333 0 0 -.13333 0 104)">
		<path fill="url(#d)"
			d="M278 319l208 173 325 271c15 11 30 18 45 18s30-6 45-18l508-422-27-6c-18-3-44-6-78-6-74 0-188 14-342 74-77 30-138 44-196 44a493 493 0 01-208-50c-42-17-88-35-139-50h-1c-44-13-90-23-140-28m580 419c-8 0-17-3-27-10L673 599l281 79-69 50c-9 6-18 10-27 10m551-397" />
	</g>
	<g clip-path="url(#f)" transform="matrix(.13333 0 0 -.13333 0 104)">
		<path fill="url(#g)"
			d="M1409 295c-1 1-148-55-447 62a462 462 0 01-404-6C420 295 236 229 0 299l3-1 300-144c23-11 38-13 57 0 0 0 81 65 88 68L814 14c33-20 57-17 89 0l506 281s-1 1 0 0" />
	</g>
	<path fill="#f4f2f2"
		d="M210 14h9l10 33 11-33h6l11 33 10-33h9l-16 44h-6l-11-31-11 31h-6l-16-44M308 41l-8-18-7 18zm-11-27h7l19 44h-8l-4-11h-21l-5 11h-7l19-44M338 21h-14v-7h35v7h-13v37h-8V21M369 14h33v7h-25v11h22v7h-22v12h25v7h-33V14M433 36c6 0 9-3 9-7 0-5-3-8-9-8h-11v15zm-19-22h20c5 0 9 2 12 5 3 2 4 5 4 9 0 7-4 12-11 13l12 17h-9l-10-15h-10v15h-8V14M459 52l4-6c4 4 9 6 14 6s8-2 8-6c0-3-2-5-10-7-9-2-15-5-15-13 0-7 7-12 15-12 7 0 12 2 16 5l-4 6c-4-3-8-5-12-5s-7 3-7 6 2 5 10 7c10 2 14 5 14 12v1c0 8-6 13-15 13-7 0-13-3-18-7M504 14h8v18h21V14h7v44h-7V40h-21v18h-8V14M555 14h32v7h-25v11h22v7h-22v12h25v7h-32V14M616 51c9 0 15-6 15-15 0-8-6-15-15-15h-9v30zm-17-37h17c13 0 23 10 23 22s-10 22-23 22h-17V14" />
	<path fill="#bfbfbf"
		d="M210 94l2-1c2 2 4 3 7 3s4-2 4-4-1-3-5-4c-5-1-7-3-7-6s3-6 7-6c3 0 5 1 7 3l-1 2-6-3c-3 0-5 2-5 4s1 3 6 4 7 3 7 6-3 6-7 6-6-1-9-4M232 87c0-6 4-11 10-11 4 0 6 2 8 3l-1 2c-2-1-4-3-7-3-5 0-8 4-8 9s4 9 8 9c3 0 5-2 7-3l1 1c-2 2-4 4-8 4-6 0-10-5-10-11M257 77h2v20h-2V77M267 77h15v2h-12v7h11v2h-11v7h13v2h-16V77M289 77h2l14 16V77h2v20h-2l-13-17v17h-3V77M314 87c0-6 4-11 11-11 3 0 6 2 8 3l-2 2-6-3c-5 0-8 4-8 9s3 9 8 9l6-3 2 1c-2 2-5 4-8 4-6 0-11-5-11-11M339 77h15v2h-12v7h11v2h-11v7h12v2h-15V77M382 81c0-2-1-3-3-3s-3 1-3 3l2 4c3-1 4-2 4-4zm1 12l-6-6c-3 1-4 3-4 5s2 4 5 4c2 0 3-1 5-3zm1 1c-2 2-4 4-7 4s-6-3-6-6 2-5 5-6c-2-2-2-3-2-5 0-3 2-5 5-5s5 2 5 5-2 4-5 5l5 5 3-4h2l-3 6 3 3-2 2-3-4M407 77h15v2h-13v7h11v2h-11v7h13v2h-15V77M428 77h3l13 16V77h2v20h-2l-13-17v17h-3V77M453 87c0-6 4-11 11-11 3 0 5 1 7 3l-1 2-6-3c-5 0-8 4-8 9s3 9 8 9l6-2v-6h-6v-2h8v9c-2 1-5 3-8 3-7 0-11-5-11-11M480 77h2v20h-2V77M491 77h2l13 16V77h2v20h-2l-13-17v17h-2V77M517 77h15v2h-13v7h11v2h-11v7h13v2h-15V77M538 77h15v2h-12v7h11v2h-11v7h13v2h-16V77M569 87c3 0 5-1 5-4s-2-4-5-4h-6v8zm-9-10h9c3 0 5 0 6 2l2 4c0 3-3 5-6 6l6 8h-2l-7-8h-5v8h-3V77M584 77h2v20h-2V77M595 77h2l13 16V77h2v20h-2l-13-17v17h-2V77M620 87c0-6 4-11 10-11 4 0 6 1 8 3l-2 2c-1-2-3-3-6-3-5 0-8 4-8 9s3 9 8 9l6-2v-6h-6v-2h9v9c-2 1-5 3-9 3-6 0-10-5-10-11" />
</svg>